<?xml version="1.0" encoding="UTF-8" standalone="no"?>
<svg
   viewBox="0 0 38 38"
   width="38"
   height="38"
   version="1.1"
   id="svg3002"
   sodipodi:docname="facebook.svg"
   inkscape:version="1.2.1 (9c6d41e410, 2022-07-14)"
   xmlns:inkscape="http://www.inkscape.org/namespaces/inkscape"
   xmlns:sodipodi="http://sodipodi.sourceforge.net/DTD/sodipodi-0.dtd"
   xmlns="http://www.w3.org/2000/svg"
   xmlns:svg="http://www.w3.org/2000/svg">
  <defs
     id="defs3006" />
  <sodipodi:namedview
     id="namedview3004"
     pagecolor="#505050"
     bordercolor="#eeeeee"
     borderopacity="1"
     inkscape:showpageshadow="0"
     inkscape:pageopacity="0"
     inkscape:pagecheckerboard="0"
     inkscape:deskcolor="#505050"
     showgrid="false"
     inkscape:zoom="4.9166667"
     inkscape:cx="19.016949"
     inkscape:cy="18.915254"
     inkscape:window-width="3840"
     inkscape:window-height="2036"
     inkscape:window-x="2508"
     inkscape:window-y="-12"
     inkscape:window-maximized="1"
     inkscape:current-layer="svg3002" />
  <g
     id="g3127"
     transform="translate(-5,-5)">
    <path
       fill="#039be5"
       d="M 24,5 A 19,19 0 1 0 24,43 19,19 0 1 0 24,5 Z"
       id="path2998" />
    <path
       fill="#ffffff"
       d="m 26.572,29.036 h 4.917 l 0.772,-4.995 h -5.69 v -2.73 c 0,-2.075 0.678,-3.915 2.619,-3.915 h 3.119 v -4.359 c -0.548,-0.074 -1.707,-0.236 -3.897,-0.236 -4.573,0 -7.254,2.415 -7.254,7.917 v 3.323 h -4.701 v 4.995 h 4.701 V 42.765 C 22.089,42.905 23.032,43 24,43 c 0.875,0 1.729,-0.08 2.572,-0.194 z"
       id="path3000" />
  </g>
</svg>
