<?xml version="1.0" encoding="UTF-8" standalone="no"?>
<svg
   viewBox="0 0 46 46"
   width="46"
   height="46"
   version="1.1"
   id="svg2826"
   sodipodi:docname="instagram.svg"
   inkscape:version="1.2.1 (9c6d41e410, 2022-07-14)"
   xmlns:inkscape="http://www.inkscape.org/namespaces/inkscape"
   xmlns:sodipodi="http://sodipodi.sourceforge.net/DTD/sodipodi-0.dtd"
   xmlns="http://www.w3.org/2000/svg"
   xmlns:svg="http://www.w3.org/2000/svg">
  <defs
     id="defs2830" />
  <sodipodi:namedview
     id="namedview2828"
     pagecolor="#505050"
     bordercolor="#eeeeee"
     borderopacity="1"
     inkscape:showpageshadow="0"
     inkscape:pageopacity="0"
     inkscape:pagecheckerboard="0"
     inkscape:deskcolor="#505050"
     showgrid="false"
     inkscape:zoom="7.375"
     inkscape:cx="37.220339"
     inkscape:cy="45.288136"
     inkscape:window-width="3840"
     inkscape:window-height="2036"
     inkscape:window-x="2508"
     inkscape:window-y="-12"
     inkscape:window-maximized="1"
     inkscape:current-layer="svg2826" />
  <radialGradient
     id="TGwjmZMm2W~B4yrgup6jda"
     cx="32"
     cy="32.5"
     r="31.259001"
     gradientTransform="matrix(1,0,0,-1,0,64)"
     gradientUnits="userSpaceOnUse">
    <stop
       offset="0"
       stop-color="#efdcb1"
       id="stop2780" />
    <stop
       offset="0"
       stop-color="#f2e0bb"
       id="stop2782" />
    <stop
       offset=".011"
       stop-color="#f2e0bc"
       id="stop2784" />
    <stop
       offset=".362"
       stop-color="#f9edd2"
       id="stop2786" />
    <stop
       offset=".699"
       stop-color="#fef4df"
       id="stop2788" />
    <stop
       offset="1"
       stop-color="#fff7e4"
       id="stop2790" />
  </radialGradient>
  <radialGradient
     id="TGwjmZMm2W~B4yrgup6jdb"
     cx="18.51"
     cy="66.292999"
     r="69.648003"
     gradientTransform="matrix(0.6435,-0.7654,0.5056,0.4251,-35.92,41.282)"
     gradientUnits="userSpaceOnUse">
    <stop
       offset=".073"
       stop-color="#eacc7b"
       id="stop2795" />
    <stop
       offset=".184"
       stop-color="#ecaa59"
       id="stop2797" />
    <stop
       offset=".307"
       stop-color="#ef802e"
       id="stop2799" />
    <stop
       offset=".358"
       stop-color="#ef6d3a"
       id="stop2801" />
    <stop
       offset=".46"
       stop-color="#f04b50"
       id="stop2803" />
    <stop
       offset=".516"
       stop-color="#f03e58"
       id="stop2805" />
    <stop
       offset=".689"
       stop-color="#db359e"
       id="stop2807" />
    <stop
       offset=".724"
       stop-color="#ce37a4"
       id="stop2809" />
    <stop
       offset=".789"
       stop-color="#ac3cb4"
       id="stop2811" />
    <stop
       offset=".877"
       stop-color="#7544cf"
       id="stop2813" />
    <stop
       offset=".98"
       stop-color="#2b4ff2"
       id="stop2815" />
  </radialGradient>
  <path
     fill="url(#TGwjmZMm2W~B4yrgup6jdb)"
     d="M 36,46 H 10 C 4.5,46 0,41.5 0,36 V 10 C 0,4.5 4.5,0 10,0 h 26 c 5.5,0 10,4.5 10,10 v 26 c 0,5.5 -4.5,10 -10,10 z"
     id="path2818"
     style="fill:url(#TGwjmZMm2W~B4yrgup6jdb)" />
  <path
     fill="#ffffff"
     d="m 23,9 c 4.6,0 5.1,0 6.9,0.1 1.7,0.1 2.6,0.4 3.2,0.6 0.8,0.3 1.4,0.7 2,1.3 0.6,0.6 1,1.2 1.3,2 0.2,0.6 0.5,1.5 0.6,3.2 0,1.7 0,2.2 0,6.8 0,4.6 0,5.1 -0.1,6.9 -0.1,1.7 -0.4,2.6 -0.6,3.2 -0.3,0.8 -0.7,1.4 -1.3,2 -0.6,0.6 -1.2,1 -2,1.3 -0.6,0.2 -1.5,0.5 -3.2,0.6 -1.7,0 -2.2,0 -6.8,0 -4.6,0 -5.1,0 -6.9,-0.1 C 14.4,36.8 13.5,36.5 12.9,36.3 12.1,36 11.5,35.6 10.9,35 10.3,34.4 9.9,33.8 9.6,33 9.4,32.4 9.1,31.5 9,29.8 9,28.1 9,27.6 9,23 c 0,-4.6 0,-5.1 0.1,-6.9 0.1,-1.7 0.4,-2.6 0.6,-3.2 0.3,-0.8 0.7,-1.4 1.3,-2 0.6,-0.6 1.2,-1 2,-1.3 0.6,-0.2 1.5,-0.5 3.2,-0.6 1.7,0 2.2,0 6.8,0 m 0,-3 c -4.6,0 -5.2,0 -7,0.1 -1.8,0.1 -3,0.4 -4.1,0.8 -1.1,0.4 -2.1,1 -3,2 -0.9,1 -1.5,1.9 -2,3 C 6.5,13 6.2,14.2 6.1,16 6,17.8 6,18.4 6,23 c 0,4.6 0,5.2 0.1,7 0.1,1.8 0.4,3 0.8,4.1 0.4,1.1 1,2.1 2,3 0.9,0.9 1.9,1.5 3,2 1.1,0.4 2.3,0.7 4.1,0.8 1.8,0.1 2.4,0.1 7,0.1 4.6,0 5.2,0 7,-0.1 1.8,-0.1 3,-0.4 4.1,-0.8 1.1,-0.4 2.1,-1 3,-2 0.9,-0.9 1.5,-1.9 2,-3 0.4,-1.1 0.7,-2.3 0.8,-4.1 0.1,-1.8 0.1,-2.4 0.1,-7 0,-4.6 0,-5.2 -0.1,-7 -0.1,-1.8 -0.4,-3 -0.8,-4.1 -0.4,-1.1 -1,-2.1 -2,-3 -1,-0.9 -1.9,-1.5 -3,-2 C 33,6.5 31.8,6.2 30,6.1 28.2,6 27.6,6 23,6 Z"
     id="path2820" />
  <path
     fill="#ffffff"
     d="m 23,14 c -5,0 -9,4 -9,9 0,5 4,9 9,9 5,0 9,-4 9,-9 0,-5 -4,-9 -9,-9 z m 0,15 c -3.3,0 -6,-2.7 -6,-6 0,-3.3 2.7,-6 6,-6 3.3,0 6,2.7 6,6 0,3.3 -2.7,6 -6,6 z"
     id="path2822" />
  <circle
     cx="32"
     cy="14"
     r="2"
     fill="#ffffff"
     id="circle2824" />
</svg>
