<?xml version="1.0" encoding="UTF-8" standalone="no"?>
<svg
   viewBox="0 0 36.002998 29"
   width="36.002998"
   height="29"
   version="1.1"
   id="svg4"
   sodipodi:docname="twitter.svg"
   inkscape:version="1.2.1 (9c6d41e410, 2022-07-14)"
   xmlns:inkscape="http://www.inkscape.org/namespaces/inkscape"
   xmlns:sodipodi="http://sodipodi.sourceforge.net/DTD/sodipodi-0.dtd"
   xmlns="http://www.w3.org/2000/svg"
   xmlns:svg="http://www.w3.org/2000/svg">
  <defs
     id="defs8" />
  <sodipodi:namedview
     id="namedview6"
     pagecolor="#505050"
     bordercolor="#eeeeee"
     borderopacity="1"
     inkscape:showpageshadow="0"
     inkscape:pageopacity="0"
     inkscape:pagecheckerboard="0"
     inkscape:deskcolor="#505050"
     showgrid="false"
     inkscape:zoom="4.9166667"
     inkscape:cx="18.101695"
     inkscape:cy="15.152542"
     inkscape:window-width="2520"
     inkscape:window-height="1535"
     inkscape:window-x="-12"
     inkscape:window-y="2176"
     inkscape:window-maximized="1"
     inkscape:current-layer="svg4" />
  <path
     fill="#03a9f4"
     d="M 36.003,3.429 C 34.68,4.015 33.257,4.406 31.756,4.591 33.282,3.685 34.456,2.24 35.007,0.533 33.579,1.37 31.997,1.985 30.314,2.309 28.97,0.884 27.053,0 24.929,0 c -4.08,0 -7.387,3.278 -7.387,7.32 0,0.572 0.067,1.129 0.193,1.67 C 11.597,8.682 6.153,5.764 2.511,1.336 c -0.64,1.082 -1,2.349 -1,3.686 0,2.541 1.301,4.778 3.285,6.096 -1.211,-0.037 -2.351,-0.374 -3.349,-0.914 0,0.022 0,0.055 0,0.086 0,3.551 2.547,6.508 5.923,7.181 -0.617,0.169 -1.269,0.263 -1.941,0.263 -0.477,0 -0.942,-0.054 -1.392,-0.135 0.94,2.902 3.667,5.023 6.898,5.086 -2.528,1.96 -5.712,3.134 -9.174,3.134 C 1.163,25.819 0.578,25.785 0,25.715 3.271,27.786 7.155,29 11.324,29 24.909,29 32.341,17.844 32.341,8.166 c 0,-0.317 -0.01,-0.633 -0.025,-0.945 1.45,-1.024 2.7,-2.316 3.687,-3.792"
     id="path2" />
</svg>
